<?xml version="1.0" encoding="utf-8"?>
<!-- Generator: Adobe Illustrator 26.0.1, SVG Export Plug-In . SVG Version: 6.00 Build 0)  -->
<svg version="1.1"
	 id="svg2" xmlns:cc="http://creativecommons.org/ns#" xmlns:dc="http://purl.org/dc/elements/1.1/" xmlns:rdf="http://www.w3.org/1999/02/22-rdf-syntax-ns#"
	 xmlns="http://www.w3.org/2000/svg" xmlns:xlink="http://www.w3.org/1999/xlink" x="0px" y="0px" viewBox="0 0 200 76.2"
	 style="enable-background:new 0 0 200 76.2;" xml:space="preserve">
<style type="text/css">
	.st0{opacity:0.5;}
	.st1{fill:#FFFFFF;}
</style>
<g id="g1664" transform="matrix(.125 0 0 -.125 0 76.25)" class="st0">
	<path id="path3324" class="st1" d="M994.4,325c-19.2,0-32.1-15-32.1-37.4c0-22.3,12.9-37.2,32.1-37.2c18.9,0,32.1,15.3,32.1,37.2
		C1026.5,309.6,1013.3,325,994.4,325 M994.4,230.2c-31.4,0-54.2,24.1-54.2,57.3c0,33.3,22.8,57.5,54.2,57.5c31.3,0,54-24.2,54-57.5
		C1048.5,254.3,1025.7,230.2,994.4,230.2"/>
	<path id="path3326" class="st1" d="M899.5,232.1h22v151.3h-22V232.1z"/>
	<path id="path3328" class="st1" d="M1120.1,325c-19.2,0-32.1-15.1-32.1-37.4c0-22.3,12.9-37.2,32.1-37.2
		c18.9,0,32.1,15.3,32.1,37.2C1152.2,309.6,1139,325,1120.1,325 M1120.1,230.2c-33.4,0-54.2,22-54.2,57.3v96.1h22.2l-0.1-48.2
		l3.7,2.1c8.6,5,18.4,7.6,28.5,7.6c31.3,0,54-24.2,54-57.5C1174.1,254.3,1151.4,230.2,1120.1,230.2"/>
	<path id="path3330" class="st1" d="M1241.9,325c-9.9,0-18.3-4.3-23.8-12.1c-2-2.8-3.7-6.4-4.8-10.3l-0.9-3.1h59.2l-0.9,3.1
		c-3.9,13.7-14.8,22.3-28.4,22.4H1241.9L1241.9,325z M1245.3,230.2c-32.1,0-55.4,24.1-55.4,57.3c0,33.3,21.9,57.5,52.2,57.5l2.7-0.1
		c29.2-1.4,49.5-25,49.5-57.4c0-1.8-0.3-5.6-0.6-8.1h-81.4l0.7-3c3.9-16.4,16.7-26.5,33.4-26.5c11.8,0,20.9,6.9,25.2,10.8l14.1-14.1
		C1281.1,242.3,1267,230.2,1245.3,230.2"/>
	<path id="path3332" class="st1" d="M821.2,230.2c-44.1,0-74.9,31.5-74.9,76.7c0,45.2,30.1,76.7,73.3,76.7c30.2,0,49-17.4,54.1-22.8
		L858,345.8c-3.6,3.8-16.9,16-38.4,16c-31.4,0-51.5-21.6-51.5-55c0-33.1,22.2-56.3,53.7-56.3c10.3,0,20.3,1.7,30.3,5.6l0,36.5h-26
		v20h47.8v-69.9C868.8,240.1,848,230.2,821.2,230.2"/>
</g>
<g class="st0">
	<path class="st1" d="M47.9,24.4c-1.3,1.5-2,3.1-1.3,3.7c0.7,0.6,2.2-0.3,3.5-1.8l0,0c1.3-1.5,1.9-3.1,1.2-3.7
		C50.7,22,49.3,22.9,47.9,24.4z"/>
	<path class="st1" d="M78,48.7c-0.2,0.3-0.5,0.5-0.6,0.6c-0.1,0.8-0.2,1.9-0.3,2.7c0.4-0.1,0.6,0,0.8,0.1h0c0.9-0.9,1.8-1.8,2.5-2.8
		l0,0c0-0.1,0-0.2,0-0.3C79.7,48.9,79.7,48.9,78,48.7z"/>
	<path class="st1" d="M81.6,34.7c0.1,2.5,0.1,3.9,0,6.4c1.2-1.1,2-1.9,2.9-3.2C83.5,36.6,82.8,35.8,81.6,34.7z"/>
	<path class="st1" d="M81,28.1c0.7-0.6,0-2.1-1.3-3.7c-1.3-1.5-2.7-2.4-3.4-1.8c-0.7,0.6-0.1,2.2,1.2,3.7
		C78.8,27.8,80.3,28.6,81,28.1z"/>
	<path class="st1" d="M63.8,15.5c-12.5,0-22.6,10.1-22.6,22.6s10.1,22.6,22.6,22.6s22.6-10.1,22.6-22.6S76.3,15.5,63.8,15.5z
		 M75.1,21.6c1-0.9,3.3,0.2,5.2,2.3c1.8,2.1,2.5,4.6,1.5,5.4c-1,0.9-3.3-0.2-5.1-2.3C74.8,24.9,74.1,22.5,75.1,21.6z M56.4,17.6
		c2.3-0.8,4.8-1.3,7.4-1.3c2.6,0,5.2,0.5,7.5,1.3l0.1,0.5c-3.3,0-5.5,0.4-7.5,1.3c-2.5-1-4.5-1.3-7.5-1.3L56.4,17.6z M56.2,19.1
		c3.1,0,5,0.3,7.5,1.3l0.1,0.1l0.1-0.1c1.9-0.9,4.1-1.2,7.4-1.3l0.4,3.5c0,0,0,0,0,0h0v0c-6.2-1.5-9.9-1.5-15.9,0L56.2,19.1z
		 M42.2,37.9c0-1.8,0.2-3.5,0.6-5.2c2.4-0.3,4.5-0.3,7.2-0.3c-0.7,4.6-0.6,7.7,0.3,12.2v0c-1.1-1-1.9-1.9-2.6-2.7
		c-1.9,0-3.4-0.1-5.1-0.2C42.3,40.5,42.2,39.2,42.2,37.9z M48.4,52.5c-0.3,0.2-0.9-0.3-1.4-1c-0.5-0.8-0.7-1.5-0.5-1.7h0
		c0.3-0.2,0.9,0.3,1.4,1C48.5,51.6,48.7,52.3,48.4,52.5z M50.9,53.9c-0.4-0.1-0.8-0.3-1.2-0.5c0.1-0.9-0.3-2-1.1-3.1
		c-0.8-1.1-1.9-1.8-2.7-2c-0.1-0.4-0.2-0.9-0.2-1.3l0.2,0c1.3,0.1,2.7,1.1,3.8,2.6C50.6,51.1,51.1,52.7,50.9,53.9z M53.2,54.6
		c-0.4-0.1-0.8-0.2-1.2-0.3c0.3-1.6-0.3-3.5-1.5-5.2c-1.3-1.8-3.1-2.9-4.8-3.1l-0.2,0c0-0.4-0.1-0.9-0.1-1.3c0.1,0,0.3,0,0.4,0
		c2.1,0.2,4.1,1.5,5.7,3.6C53,50.4,53.6,52.7,53.2,54.6z M51.2,26.8L51.2,26.8L51,27c-1.8,2.1-4.2,3.2-5.2,2.3
		c-1-0.9-0.3-3.3,1.5-5.4c1.8-2.1,4.2-3.2,5.2-2.3c0.8,0.7,0.5,2.2-0.4,3.9c1.8,0.7,3.2,1.5,3.8,1.7l-0.9,1.3
		C54.6,28.3,53.6,27.7,51.2,26.8z M70.7,58.4c-2.2,0.7-4.5,1.1-6.9,1.1c-2.4,0-4.8-0.4-6.9-1.1c-0.3-2.3-0.4-4.3-0.5-6.6
		c1,0.2,2,0.4,2.9,0.6l1-1.6c3,0.3,4.6,0.3,7.3,0l1,1.6c0.9-0.2,1.8-0.4,2.7-0.6C71.2,54.2,71,56.3,70.7,58.4z M72.6,38.3
		c-0.5,5.1-2,9-6.9,9.1c-4.1,0.1-6-2.4-7.6-4.6c-1-1.3-1.4-2-1.7-2.3c-0.9-1.3-0.4-2.4-0.1-2.4c0.3,0,3.5,3.4,3.5,3.4
		c0.2-0.7,0-1-0.8-1.9c-0.8-0.9-3.8-3.4-3.8-4.5c-0.1-1,0.2-1.5,0.5-1.5c0.4,0,5.8,5.2,5.8,5.2s0.3-0.5-0.3-1.3
		c-0.2-0.3-4.7-4.3-4.9-4.9c-0.2-0.7-0.1-1.9,0.3-1.9c0.4,0,6.6,5.5,6.6,5.5s0.2-0.8-0.6-1.8c-0.8-1-3.4-3.7-3.4-4.6
		c0-0.9,0.3-1.6,0.6-1.6c0.3,0,8.2,7.7,8.7,7.9c0.2,0.1,0.9-0.2,1.6-1.2h0c0.9-1.2,1.2-3.2,3.2-2.6C73.1,34,72.8,36.1,72.6,38.3z
		 M73.2,29.2c-0.3,0.2-0.7,0.2-1-0.1c-0.3-0.3-0.3-0.7,0-1c0.3-0.2,0.7-0.2,1,0.1C73.4,28.5,73.4,29,73.2,29.2z M73.7,26.4
		c0.4-0.4,1.2-0.3,1.7,0.3c0.5,0.6,0.6,1.4,0.2,1.7c-0.4,0.4-1.2,0.3-1.7-0.3C73.3,27.6,73.3,26.8,73.7,26.4z M82.3,48.3
		c-0.2,0.6-0.9,1.5-1.4,1.5c-0.8,1-1.6,1.9-2.5,2.8l0,0c0.1,1.8-2.6,3.8-3.7,3.5c-1.1-0.3-0.4-2.4,1.6-3.7c0.1-0.8,0.1-1.9,0.2-2.7
		c-0.1,0-0.4,0-0.6-0.2c-1.1-0.7-0.4-3,1.5-3.5c1.3-0.1,1.3,1,1.3,1.4c0.9,0.1,1,0.1,2.5,0.3c0.1-0.2,0.4-0.5,0.7-0.7h0
		C82.3,47,82.5,47.5,82.3,48.3z M81.8,44.7c-2,0-3.6-3-3.6-6.8c0-3.8,1.6-6.8,3.6-6.8c2,0,3.6,3,3.6,6.8
		C85.4,41.6,83.8,44.7,81.8,44.7z"/>
	<path class="st1" d="M63.8,53.7c-2,0-3.6,1.4-3.6,2.9c0,1.2,1.6,2.3,3.6,2.3c2,0,3.6-1,3.6-2.3C67.4,55,65.8,53.7,63.8,53.7z
		 M63.8,58.1c-1.2,0-2.3-0.9-2.3-1.6c0-0.9,1-1.8,2.3-1.8c1.2,0,2.3,0.8,2.3,1.7C66.1,57.4,65,58.1,63.8,58.1z"/>
</g>
</svg>
