<?xml version="1.0" encoding="utf-8"?>
<!-- Generator: Adobe Illustrator 26.0.1, SVG Export Plug-In . SVG Version: 6.00 Build 0)  -->
<svg version="1.1"
	 id="svg2" xmlns:cc="http://creativecommons.org/ns#" xmlns:dc="http://purl.org/dc/elements/1.1/" xmlns:rdf="http://www.w3.org/1999/02/22-rdf-syntax-ns#"
	 xmlns="http://www.w3.org/2000/svg" xmlns:xlink="http://www.w3.org/1999/xlink" x="0px" y="0px" viewBox="0 0 200 76.2"
	 style="enable-background:new 0 0 200 76.2;" xml:space="preserve">
<style type="text/css">
	.st0{fill:#FFFFFF;}
</style>
<g id="g1664" transform="matrix(.125 0 0 -.125 0 76.25)">
	<path id="path3324" class="st0" d="M1110.2,337.7c-31.4,0-52.5-24.6-52.5-61.1c0-36.4,21.1-60.8,52.5-60.8
		c30.9,0,52.5,25,52.5,60.8C1162.7,312.6,1141.1,337.7,1110.2,337.7 M1110.2,182.9c-51.3,0-88.6,39.4-88.6,93.7
		c0,54.5,37.3,94,88.6,94c51.1,0,88.3-39.6,88.3-94C1198.5,222.3,1161.3,182.9,1110.2,182.9"/>
	<path id="path3326" class="st0" d="M955,186h36v247.2h-36V186z"/>
	<path id="path3328" class="st0" d="M1315.5,337.7c-31.4,0-52.4-24.6-52.4-61.1c0-36.4,21-60.8,52.4-60.8c30.9,0,52.5,25,52.5,60.8
		C1368,312.6,1346.4,337.7,1315.5,337.7 M1315.5,182.9c-54.7,0-88.6,35.9-88.6,93.7v157h36.2l-0.2-78.8l6.1,3.5
		c14,8.1,30.1,12.4,46.5,12.4c51.1,0,88.2-39.5,88.2-94C1403.7,222.3,1366.6,182.9,1315.5,182.9"/>
	<path id="path3330" class="st0" d="M1514.6,337.7c-16.1,0-30-7-38.9-19.7c-3.3-4.6-6-10.4-7.9-16.9l-1.4-5.1h96.8l-1.5,5
		c-6.3,22.3-24.2,36.4-46.5,36.7L1514.6,337.7L1514.6,337.7z M1520.1,182.9c-52.5,0-90.6,39.4-90.6,93.7c0,54.5,35.9,94,85.2,94
		l4.4-0.2c47.7-2.3,80.9-40.9,80.9-93.9c0-2.9-0.6-9.2-0.9-13.2h-133.1l1.2-4.9c6.4-26.8,27.2-43.4,54.5-43.4
		c19.2,0,34.2,11.2,41.1,17.6l23.1-23C1578.7,202.5,1555.5,182.9,1520.1,182.9"/>
	<path id="path3332" class="st0" d="M827.1,182.8c-72,0-122.4,51.5-122.4,125.3c0,73.8,49.2,125.3,119.8,125.3
		c49.3,0,80-28.4,88.5-37.3l-25.7-24.3c-5.8,6.2-27.5,26.2-62.8,26.2c-51.3,0-84.2-35.3-84.2-89.9c0-54.1,36.3-92,87.8-92
		c16.9,0,33.2,2.9,49.4,9.1l0,59.7H835v32.7h78.2V203.4C904.8,199,871,182.8,827.1,182.8"/>
</g>
<g>
	<path class="st0" d="M14,15.6c-2.1,2.5-3.2,5-2.1,6c1.1,1,3.6-0.4,5.7-2.9l0,0c2.1-2.5,3.2-5.1,2-6C18.5,11.7,16.1,13.2,14,15.6z"
		/>
	<path class="st0" d="M63.1,55.5c-0.4,0.6-0.8,0.9-1,1c-0.1,1.3-0.3,3.1-0.4,4.5c0.7-0.1,1.1,0,1.3,0.1h0c1.5-1.4,2.9-3,4.1-4.6
		l0-0.1c0-0.2,0-0.3,0-0.5C65.9,55.8,65.9,55.8,63.1,55.5z"/>
	<path class="st0" d="M68.9,32.4c0.2,4.1,0.2,6.4,0,10.5c1.9-1.8,3.2-3.1,4.7-5.2C72,35.6,71,34.3,68.9,32.4z"/>
	<path class="st0" d="M68,21.7c1.1-1,0-3.5-2.1-6c-2.1-2.5-4.5-3.9-5.6-2.9c-1.1,1-0.1,3.6,2,6C64.4,21.2,66.8,22.6,68,21.7z"/>
	<path class="st0" d="M39.9,1.2C19.5,1.2,3,17.7,3,38.1s16.5,36.9,36.9,36.9s36.9-16.5,36.9-36.9S60.3,1.2,39.9,1.2z M58.4,11.1
		c1.6-1.4,5.4,0.3,8.4,3.8c3,3.5,4.1,7.5,2.5,8.9c-1.6,1.4-5.4-0.3-8.4-3.8C57.8,16.5,56.7,12.5,58.4,11.1z M27.8,4.6
		c3.8-1.4,7.9-2.1,12.1-2.1c4.3,0,8.4,0.8,12.3,2.2l0.1,0.9c-5.4,0.1-9,0.7-12.2,2.1C35.9,6,32.6,5.5,27.7,5.4L27.8,4.6z M27.6,7
		c5,0,8.1,0.5,12.3,2.1l0.2,0.1l0.2-0.1c3.1-1.4,6.8-2,12.1-2l0.6,5.7c0,0,0,0,0,0h0v0c-10.1-2.4-16.2-2.5-26,0L27.6,7z M4.6,37.7
		c0-2.9,0.4-5.8,1-8.5c3.9-0.4,7.4-0.5,11.8-0.6c-1.2,7.5-1,12.6,0.4,20v0c-1.8-1.6-3.1-3-4.3-4.4C10.4,44.2,8,44.2,5.1,44
		C4.8,42,4.6,39.9,4.6,37.7z M14.8,61.7c-0.4,0.3-1.5-0.4-2.4-1.7c-0.9-1.2-1.2-2.5-0.8-2.8h0c0.4-0.3,1.5,0.4,2.4,1.7
		C14.9,60.1,15.2,61.3,14.8,61.7z M18.8,63.9c-0.7-0.2-1.3-0.5-2-0.7c0.1-1.4-0.5-3.3-1.8-5c-1.3-1.8-3-3-4.4-3.3
		c-0.2-0.7-0.3-1.4-0.4-2.1l0.2,0c2.1,0.2,4.5,1.7,6.3,4.2C18.4,59.3,19.1,61.9,18.8,63.9z M22.6,65c-0.7-0.2-1.4-0.3-2-0.5
		c0.4-2.6-0.4-5.7-2.5-8.6c-2.2-3-5-4.8-7.8-5l-0.4,0c-0.1-0.7-0.1-1.4-0.2-2.1c0.2,0,0.5,0,0.7,0c3.4,0.3,6.8,2.4,9.3,5.9
		C22.2,58.1,23.2,61.9,22.6,65z M19.3,19.6L19.3,19.6L19,19.9c-3,3.5-6.8,5.2-8.4,3.8c-1.6-1.4-0.5-5.4,2.5-8.9
		c3-3.5,6.8-5.2,8.4-3.8c1.2,1.1,0.9,3.6-0.7,6.3c2.9,1.1,5.2,2.4,6.2,2.9l-1.4,2.2C24.9,22.1,23.2,21,19.3,19.6z M51.2,71.2
		c-3.6,1.2-7.4,1.9-11.3,1.9c-4,0-7.8-0.7-11.3-1.9c-0.5-3.8-0.6-7-0.8-10.7c1.7,0.4,3.2,0.7,4.7,0.9l1.6-2.6
		c4.9,0.4,7.5,0.4,11.9,0l1.7,2.6c1.4-0.3,2.9-0.6,4.4-1C51.9,64.3,51.7,67.8,51.2,71.2z M54.2,38.3c-0.8,8.3-3.3,14.7-11.2,14.9
		c-6.7,0.2-9.9-4-12.4-7.5c-1.6-2.2-2.3-3.2-2.7-3.8c-1.4-2.1-0.7-3.9-0.2-3.9c0.5,0,5.7,5.6,5.7,5.6c0.3-1.2,0.1-1.6-1.3-3.1
		C30.8,39,26,35,25.8,33.1c-0.1-1.6,0.3-2.4,0.9-2.4c0.6,0,9.4,8.5,9.4,8.5s0.5-0.8-0.4-2c-0.3-0.4-7.7-7-8.1-8.1
		c-0.4-1.2-0.1-3.1,0.5-3.1c0.7,0,10.7,9,10.7,9s0.3-1.2-1-2.9c-1.3-1.7-5.5-6-5.5-7.5c0-1.5,0.5-2.6,1-2.6
		c0.5,0,13.4,12.6,14.2,12.9c0.4,0.1,1.4-0.3,2.6-1.9h0c1.4-2,2-5.2,5.3-4.3C55.1,31.4,54.6,34.8,54.2,38.3z M55.2,23.6
		c-0.4,0.4-1.1,0.3-1.6-0.2c-0.5-0.5-0.5-1.2-0.1-1.6c0.4-0.4,1.1-0.3,1.6,0.2C55.6,22.5,55.6,23.2,55.2,23.6z M56.1,18.9
		c0.7-0.7,2-0.4,2.8,0.5c0.9,0.9,1,2.2,0.3,2.9c-0.7,0.7-2,0.4-2.8-0.5C55.5,20.9,55.4,19.6,56.1,18.9z M70.1,54.8
		c-0.4,1-1.4,2.5-2.3,2.5c-1.2,1.7-2.6,3.2-4.1,4.6l0,0c0.2,2.9-4.2,6.2-6,5.7c-1.8-0.5-0.7-4,2.6-6c0.2-1.3,0.2-3.1,0.3-4.4
		c-0.2,0-0.6,0-1-0.3c-1.8-1.2-0.6-5,2.4-5.7c2.1-0.2,2.2,1.6,2.1,2.4c1.5,0.2,1.6,0.2,4.1,0.5c0.2-0.3,0.6-0.8,1.2-1.1h0
		C70.1,52.6,70.5,53.5,70.1,54.8z M69.4,48.8c-3.3,0-5.9-5-5.9-11.1c0-6.1,2.6-11.1,5.9-11.1c3.2,0,5.9,5,5.9,11.1
		C75.2,43.9,72.6,48.8,69.4,48.8z"/>
	<path class="st0" d="M39.9,63.5c-3.3,0-5.9,2.3-5.9,4.7c0,1.9,2.7,3.7,5.9,3.7c3.3,0,5.9-1.6,5.9-3.8
		C45.8,65.7,43.1,63.5,39.9,63.5z M39.9,70.7c-2,0-3.7-1.4-3.7-2.6c0-1.5,1.7-2.9,3.7-2.9c2,0,3.8,1.3,3.8,2.8
		C43.7,69.6,41.9,70.7,39.9,70.7z"/>
</g>
</svg>
