<?xml version="1.0" encoding="utf-8"?>
<!-- Generator: Adobe Illustrator 26.0.1, SVG Export Plug-In . SVG Version: 6.00 Build 0)  -->
<svg version="1.1" id="thumbs-up" xmlns="http://www.w3.org/2000/svg" xmlns:xlink="http://www.w3.org/1999/xlink" x="0px" y="0px"
	 viewBox="0 0 42.2 39.6" style="enable-background:new 0 0 42.2 39.6;" xml:space="preserve">
<style type="text/css">
	.st0{fill:#FFFFFF;}
</style>
<g id="thumbs-up_00000072272022789622275220000018434940632592131772_" transform="matrix(0.26375465,0,0,0.26375465,-71.523762,-124.22195)">
	<path id="path3052" class="st0" d="M324.8,620.3c-5.5-1.5-9.1-5.4-9.1-10c0-2.5-0.6-3.3-2.9-3.9c-5.8-1.4-9.5-5.7-9.5-11.1
		c0-3.2-0.3-3.6-3.7-5.5c-4.8-2.7-6.6-8.8-4.4-15c1-2.7,1-2.8-1.2-6.4c-3-5-3.8-8-3.5-12.8c0.2-3.2,0.7-4.8,2.4-7.4
		c4.7-7.4,17.7-12.5,31.9-12.5c3.4,0,5.5-0.3,6-0.8c1.3-1.6-2.1-12.5-6.6-21.4c-6.8-13.4-8.2-19.8-5.9-27.5
		c1.3-4.5,3.7-7.8,7.4-10.3c4.4-3,13.7-5.8,13.7-4.2c0,0.3,1.3,6,2.8,12.6c3.2,13.9,1.5,11.1,17.1,27.8c4.7,5,11.6,13.2,15.5,18.2
		s8.2,10.3,9.6,11.8l2.7,2.6l9.4,0.2c6.3,0.1,9.6,0.5,10.1,1c0.4,0.4,1.5,3.4,2.6,6.6c2.8,8.3,3.7,17.9,2.8,27.4
		c-0.7,7.2-3.4,18-4.8,19.8c-0.5,0.6-3,0.8-8.8,0.8h-8.1L384,606c-6.7,6.4-16.8,13.4-20.9,14.6c-3,0.8-14.3,0.4-17.9-0.7
		c-1.7-0.5-2.8-0.4-4.5,0.3C337.9,621.4,329,621.4,324.8,620.3L324.8,620.3z M364.3,614.3c5.3-3.2,11-7.8,17-14l5.2-5.3h7.6
		c5.6,0,7.8-0.2,8.3-0.9c0.4-0.5,1.4-3.2,2.1-6c2.1-7.7,2.1-20.6,0-28.9c-0.9-3.3-1.9-6.5-2.4-6.9c-0.5-0.5-3.5-1-7.6-1.3
		c-3.7-0.2-7.7-0.6-8.8-0.8c-3.2-0.6-6.8-4.2-14.4-14.2c-3.8-5.1-11.9-14.4-17.9-20.8c-6-6.4-11.6-12.5-12.5-13.7
		c-1.2-1.6-2.2-4.7-3.7-12c-1.2-5.4-2.3-10-2.6-10.3c-0.7-0.8-5.2,1.7-7.6,4.2c-4,4.2-5,9.1-3.1,15.3c0.5,1.8,2.9,6.6,5.2,10.6
		c5.3,9.3,8,17.4,8.6,25.3l0.4,5.9l-8.7,0.5c-15.6,0.8-24.7,3.1-29.4,7.4c-5.8,5.2-4.7,14.1,2.5,20.1c2.8,2.4,7.2,3.6,12.7,3.6
		c4.1,0,5.4-0.4,14.6-4.3c5.5-2.4,10.3-4.6,10.5-5c0.7-1.1-4.6-5.5-7.7-6.4c-3.5-0.9-6.6-0.5-13.3,1.6c-6.8,2.2-8.9,2.2-11.8-0.4
		c-3.3-2.9-3.1-3.9,1.2-3.9c2,0,5.5-0.7,8.3-1.7c12.6-4.3,22.7-1.8,29.1,7.2c2.9,4.1,3.5,6.5,1.8,7.1c-1.6,0.6-1.2,1.5,1.3,3
		c2.2,1.4,7.5,8.3,7.5,9.8c0,0.4-0.7,1-1.6,1.4s-1.6,0.9-1.6,1.2s1,1.4,2.3,2.7c3,2.9,6.4,8.2,5.9,9.1c-0.2,0.4-1.6,1.3-3.1,2
		l-2.6,1.4l2.3,2.4c3.1,3.3,5.7,7.3,5.7,8.9c0,1.1-1.2,1.8-5.9,3.8c-7.5,3.2-7.7,4.2-0.9,4.3C359.9,616.6,361.2,616.2,364.3,614.3z
		 M346.1,611.3c5.2-2.2,9.4-4.3,9.4-4.8c0-1-5.3-6.3-6.3-6.3c-0.4,0-4.1,1.5-8.2,3.3c-6.9,3-7.9,3.3-12.7,3.3
		c-5.8,0-7.1,0.7-6.1,3.3c1.3,3.5,4.5,5,10.8,5.1C336.2,615.3,338.1,614.7,346.1,611.3z M341.5,596.5c6.3-2.8,11.4-5.4,11.4-5.8
		c0-1.1-5.2-5.5-6.6-5.5c-0.6,0-4.7,1.6-9.1,3.6l-8,3.6h-9.3c-10.5,0-11.5,0.4-10.1,3.8c1.5,3.5,6.2,5.2,15.3,5.3
		C330.1,601.6,330.4,601.5,341.5,596.5z M333.9,583.7c4.5-1.9,9.6-4.1,11.3-4.9c2.8-1.2,3.1-1.5,2.4-2.7c-1-1.8-6.4-5.2-8.3-5.2
		c-0.8,0-5.1,1.6-9.6,3.6c-7.9,3.5-8.3,3.6-13.9,3.6c-5.4,0-8.4-0.4-12.7-1.6c-1.5-0.4-1.8-0.2-2.4,1.5c-0.8,2.3,0.4,5.2,2.6,6.6
		c2.6,1.6,7.8,2.5,15.1,2.6l7.1,0.1L333.9,583.7L333.9,583.7z"/>
</g>
</svg>
